<?xml version="1.0" encoding="UTF-8" standalone="no"?>
<svg
   xmlns:dc="http://purl.org/dc/elements/1.1/"
   xmlns:cc="http://creativecommons.org/ns#"
   xmlns:rdf="http://www.w3.org/1999/02/22-rdf-syntax-ns#"
   xmlns:svg="http://www.w3.org/2000/svg"
   xmlns="http://www.w3.org/2000/svg"
   xmlns:sodipodi="http://sodipodi.sourceforge.net/DTD/sodipodi-0.dtd"
   xmlns:inkscape="http://www.inkscape.org/namespaces/inkscape"
   sodipodi:docname="mikazuki-studio-logo.svg"
   inkscape:version="1.0 (4035a4fb49, 2020-05-01)"
   id="svg8"
   version="1.1"
   viewBox="0 0 97.006821 99.272766"
   height="99.272766mm"
   width="97.006821mm">
  <defs
     id="defs2" />
  <sodipodi:namedview
     inkscape:window-maximized="1"
     inkscape:window-y="-8"
     inkscape:window-x="-8"
     inkscape:window-height="992"
     inkscape:window-width="1920"
     fit-margin-bottom="0"
     fit-margin-right="0"
     fit-margin-left="0"
     fit-margin-top="0"
     showgrid="false"
     inkscape:document-rotation="0"
     inkscape:current-layer="layer1"
     inkscape:document-units="mm"
     inkscape:cy="166.96652"
     inkscape:cx="226.12981"
     inkscape:zoom="0.98994949"
     inkscape:pageshadow="2"
     inkscape:pageopacity="0.0"
     borderopacity="1.0"
     bordercolor="#666666"
     pagecolor="#ffffff"
     id="base" />
  <metadata
     id="metadata5">
    <rdf:RDF>
      <cc:Work
         rdf:about="">
        <dc:format>image/svg+xml</dc:format>
        <dc:type
           rdf:resource="http://purl.org/dc/dcmitype/StillImage" />
        <dc:title></dc:title>
      </cc:Work>
    </rdf:RDF>
  </metadata>
  <g
     transform="translate(-58.182004,-86.920707)"
     id="layer1"
     inkscape:groupmode="layer"
     inkscape:label="Layer 1">
    <path
       id="path847"
       d="m 102.19872,186.08204 c -18.708775,-1.34587 -35.010016,-12.93765 -42.33195,-30.10213 -0.589497,-1.38193 -1.618198,-4.19972 -1.555938,-4.26198 0.02118,-0.0212 0.502407,0.0199 1.069391,0.0913 2.073369,0.26098 4.727155,-0.0358 6.786672,-0.75891 6.714243,-2.35747 10.949382,-9.3277 9.927979,-16.33956 -0.789119,-5.41724 -4.217689,-9.83666 -9.261123,-11.93757 -2.39328,-0.99695 -5.154269,-1.36045 -7.715407,-1.01578 -0.478443,0.0644 -0.894818,0.0921 -0.925276,0.0617 -0.166425,-0.16643 1.582314,-4.67568 2.716623,-7.00501 2.415839,-4.961 5.215992,-8.92352 9.151976,-12.95106 4.826784,-4.939058 9.993045,-8.446585 16.459449,-11.174803 4.557849,-1.922987 9.526423,-3.132216 15.025964,-3.656952 1.52311,-0.145326 6.3012,-0.148003 7.99042,-0.0045 8.84279,0.751339 17.27431,3.783866 24.46089,8.797742 4.13723,2.886425 8.25859,6.869293 11.27208,10.893303 8.46201,11.29958 11.70294,25.59564 8.97318,39.58166 -2.05847,10.54665 -7.74148,20.34747 -16.0057,27.60312 -2.52746,2.21902 -6.18526,4.80755 -8.32715,5.89293 l -0.52955,0.26835 v -4.01624 -4.01624 l 0.92604,-0.66369 c 5.64878,-4.04847 10.25348,-9.40557 13.34668,-15.52754 2.34642,-4.64395 3.9636,-10.17793 4.41944,-15.1234 l 0.0707,-0.76729 -12.74166,0.002 c -7.00791,8.5e-4 -12.80107,0.0394 -12.87369,0.0855 -0.10464,0.0665 -0.13757,4.56102 -0.15875,21.6642 l -0.0267,21.58035 -1.5875,0.50973 c -5.89911,1.89411 -12.59131,2.72038 -18.55711,2.29122 z m 8.96192,-7.17806 c 1.75794,-0.25247 4.16145,-0.72413 4.27736,-0.83939 0.0438,-0.0436 0.0676,-8.62539 0.0529,-19.07071 l -0.0267,-18.9915 h -9.4192 -9.419168 v 19.15583 19.15583 l 0.893212,0.17834 c 2.884756,0.57596 4.657176,0.71221 8.684706,0.6676 2.75716,-0.0305 3.74062,-0.0813 4.95689,-0.256 z m -21.466891,-42.3941 c 0,-21.79902 -0.018,-39.634583 -0.03999,-39.634583 -0.23354,0 -3.632855,1.625711 -5.006519,2.394351 -5.721381,3.201422 -10.932048,8.018992 -14.560414,13.461952 -0.899035,1.34866 -2.088907,3.34046 -2.088907,3.49675 0,0.0461 0.416719,0.24166 0.926042,0.43449 2.723272,1.03099 5.346328,2.76293 7.549681,4.98487 5.635449,5.68297 7.631544,14.11769 5.157655,21.79425 -1.808085,5.61054 -5.786344,10.163 -11.146295,12.75507 -0.756708,0.36595 -1.578239,0.72511 -1.825625,0.79814 -0.247385,0.073 -0.449791,0.1683 -0.449791,0.21171 0,0.19898 1.248449,2.24139 2.260198,3.69758 3.961607,5.70186 9.610793,10.62509 15.731467,13.70988 1.352605,0.6817 3.197057,1.51882 3.360208,1.52506 0.105607,0.004 0.132292,-7.98972 0.132292,-39.62952 z m 25.823331,-22.4811 V 94.987263 l -0.71437,-0.158656 c -5.42288,-1.204369 -11.14596,-1.331797 -16.695212,-0.371727 -0.6985,0.120846 -1.329531,0.267822 -1.402291,0.326611 -0.104947,0.08479 -0.132292,4.038333 -0.132292,19.126289 0,10.46067 0.03175,19.05115 0.07056,19.08996 0.0388,0.0388 4.301235,0.0705 9.472075,0.0705 h 9.40153 z m 32.59582,18.80339 c -0.001,-0.31167 -0.28699,-2.60135 -0.42616,-3.41313 -0.35981,-2.0989 -1.43108,-6.15807 -1.94815,-7.38187 l -0.16768,-0.39688 h -11.58733 -11.58733 v 5.64445 c 0,3.10444 0.0318,5.67619 0.0706,5.715 0.0388,0.0388 5.82524,0.0705 12.85875,0.0705 h 12.78819 l -0.001,-0.23812 z m -5.92582,-18.26759 c 0,-0.1413 -1.9613,-3.03453 -2.73651,-4.03678 -1.16544,-1.50678 -2.45343,-2.94496 -3.99575,-4.46168 -2.67529,-2.63089 -4.80787,-4.29519 -7.97857,-6.22659 -1.19085,-0.725393 -4.86701,-2.55421 -4.98621,-2.48054 -0.0533,0.03291 -0.0938,3.78306 -0.0938,8.67714 v 8.61917 h 9.89541 c 5.44248,0 9.89542,-0.0408 9.89542,-0.0907 z"
       style="fill:#000000;stroke-width:1" />
  </g>
</svg>
